<svg width="512" height="512" viewBox="0 0 512 512" xmlns="http://www.w3.org/2000/svg">
  <defs>
    <linearGradient id="bgGradient" x1="0%" y1="0%" x2="100%" y2="100%">
      <stop offset="0%" style="stop-color:#FEF9F3;stop-opacity:1" />
      <stop offset="100%" style="stop-color:#F5E6D3;stop-opacity:1" />
    </linearGradient>
    <linearGradient id="runnerGradient" x1="0%" y1="0%" x2="100%" y2="100%">
      <stop offset="0%" style="stop-color:#DE9151;stop-opacity:1" />
      <stop offset="100%" style="stop-color:#C8823E;stop-opacity:1" />
    </linearGradient>
    <linearGradient id="shadowGradient" x1="0%" y1="0%" x2="100%" y2="100%">
      <stop offset="0%" style="stop-color:#424242;stop-opacity:0.1" />
      <stop offset="100%" style="stop-color:#424242;stop-opacity:0.3" />
    </linearGradient>
  </defs>

  <!-- Background Circle -->
  <circle cx="256" cy="256" r="240" fill="url(#bgGradient)" stroke="#DE9151" stroke-width="4"/>

  <!-- Shadow for runner -->
  <ellipse cx="260" cy="420" rx="80" ry="20" fill="url(#shadowGradient)"/>

  <!-- Runner figure -->
  <g transform="translate(256, 256)">
    <!-- Body -->
    <ellipse cx="0" cy="20" rx="35" ry="60" fill="url(#runnerGradient)"/>

    <!-- Head -->
    <circle cx="0" cy="-50" r="28" fill="url(#runnerGradient)"/>

    <!-- Left arm (back) -->
    <ellipse cx="-25" cy="-10" rx="12" ry="35" fill="url(#runnerGradient)" transform="rotate(-30)"/>

    <!-- Right arm (front) -->
    <ellipse cx="25" cy="0" rx="12" ry="35" fill="url(#runnerGradient)" transform="rotate(45)"/>

    <!-- Left leg (back) -->
    <ellipse cx="-20" cy="70" rx="15" ry="40" fill="url(#runnerGradient)" transform="rotate(-20)"/>

    <!-- Right leg (front, lifted) -->
    <ellipse cx="15" cy="50" rx="15" ry="40" fill="url(#runnerGradient)" transform="rotate(60)"/>

    <!-- Running shoes -->
    <ellipse cx="-35" cy="95" rx="8" ry="12" fill="#424242" transform="rotate(-20)"/>
    <ellipse cx="35" cy="30" rx="8" ry="12" fill="#424242" transform="rotate(60)"/>
  </g>

  <!-- Motion lines -->
  <g stroke="#DE9151" stroke-width="3" stroke-linecap="round" opacity="0.6">
    <line x1="100" y1="200" x2="130" y2="200"/>
    <line x1="105" y1="220" x2="140" y2="220"/>
    <line x1="110" y1="240" x2="135" y2="240"/>

    <line x1="100" y1="300" x2="125" y2="300"/>
    <line x1="95" y1="320" x2="130" y2="320"/>
    <line x1="105" y1="340" x2="135" y2="340"/>
  </g>

  <!-- Calendar/plan element -->
  <rect x="350" y="150" width="80" height="100" rx="8" fill="white" stroke="#DE9151" stroke-width="2"/>
  <rect x="350" y="150" width="80" height="25" rx="8" fill="#DE9151"/>

  <!-- Calendar dots -->
  <circle cx="370" cy="180" r="3" fill="white"/>
  <circle cx="390" cy="180" r="3" fill="white"/>
  <circle cx="410" cy="180" r="3" fill="white"/>

  <!-- Weekly schedule lines -->
  <line x1="360" y1="200" x2="420" y2="200" stroke="#424242" stroke-width="1"/>
  <line x1="360" y1="210" x2="410" y2="210" stroke="#424242" stroke-width="1"/>
  <line x1="360" y1="220" x2="415" y2="220" stroke="#424242" stroke-width="1"/>
  <line x1="360" y1="230" x2="400" y2="230" stroke="#424242" stroke-width="1"/>

  <!-- Checkmark for completed day -->
  <path d="M365 235 L370 240 L380 225" stroke="#DE9151" stroke-width="3" fill="none" stroke-linecap="round"/>
</svg>
