<svg width="512" height="512" viewBox="0 0 512 512" xmlns="http://www.w3.org/2000/svg">
  <defs>
    <linearGradient id="bg" x1="0%" y1="0%" x2="100%" y2="100%">
      <stop offset="0%" style="stop-color:#FEF9F3"/>
      <stop offset="100%" style="stop-color:#F5E6D3"/>
    </linearGradient>
    <linearGradient id="runner" x1="0%" y1="0%" x2="100%" y2="100%">
      <stop offset="0%" style="stop-color:#DE9151"/>
      <stop offset="100%" style="stop-color:#C8823E"/>
    </linearGradient>
  </defs>

  <rect width="512" height="512" rx="128" fill="url(#bg)"/>
  <circle cx="256" cy="256" r="180" fill="#FEF9F3" stroke="#DE9151" stroke-width="8"/>

  <!-- Runner figure -->
  <g transform="translate(256, 256)">
    <!-- Head -->
    <circle cx="0" cy="-40" r="32" fill="url(#runner)"/>
    <!-- Body -->
    <ellipse cx="0" cy="15" rx="25" ry="50" fill="url(#runner)"/>
    <!-- Arms -->
    <ellipse cx="-20" cy="-8" rx="12" ry="30" fill="url(#runner)" transform="rotate(-25)"/>
    <ellipse cx="20" cy="5" rx="12" ry="30" fill="url(#runner)" transform="rotate(40)"/>
    <!-- Legs -->
    <ellipse cx="-15" cy="55" rx="15" ry="35" fill="url(#runner)" transform="rotate(-15)"/>
    <ellipse cx="18" cy="45" rx="15" ry="35" fill="url(#runner)" transform="rotate(50)"/>
    <!-- Shoes -->
    <ellipse cx="-25" cy="80" rx="6" ry="10" fill="#424242" transform="rotate(-15)"/>
    <ellipse cx="35" cy="25" rx="6" ry="10" fill="#424242" transform="rotate(50)"/>
  </g>

  <!-- Motion lines -->
  <g stroke="#DE9151" stroke-width="6" stroke-linecap="round" opacity="0.8">
    <line x1="80" y1="200" x2="120" y2="200"/>
    <line x1="85" y1="220" x2="130" y2="220"/>
    <line x1="90" y1="240" x2="125" y2="240"/>
    <line x1="80" y1="280" x2="115" y2="280"/>
    <line x1="75" y1="300" x2="125" y2="300"/>
  </g>

  <!-- Training plan calendar -->
  <rect x="320" y="120" width="100" height="120" rx="12" fill="white" stroke="#DE9151" stroke-width="4"/>
  <rect x="320" y="120" width="100" height="30" rx="12" fill="#DE9151"/>

  <!-- Calendar header dots -->
  <circle cx="340" cy="135" r="4" fill="white"/>
  <circle cx="370" cy="135" r="4" fill="white"/>
  <circle cx="400" cy="135" r="4" fill="white"/>

  <!-- Schedule lines -->
  <line x1="330" y1="170" x2="410" y2="170" stroke="#424242" stroke-width="2"/>
  <line x1="330" y1="185" x2="395" y2="185" stroke="#424242" stroke-width="2"/>
  <line x1="330" y1="200" x2="405" y2="200" stroke="#424242" stroke-width="2"/>
  <line x1="330" y1="215" x2="385" y2="215" stroke="#424242" stroke-width="2"/>

  <!-- Checkmark -->
  <path d="M335 225 L345 235 L360 215" stroke="#DE9151" stroke-width="4" fill="none" stroke-linecap="round"/>
</svg>
